<svg width="894" height="418" viewBox="0 0 894 418" fill="none" xmlns="http://www.w3.org/2000/svg">
<mask id="mask0_2_3" style="mask-type:alpha" maskUnits="userSpaceOnUse" x="0" y="0" width="894" height="418">
<path d="M0 0H893.333V417.333H0V0Z" fill="white"/>
</mask>
<g mask="url(#mask0_2_3)">
<mask id="mask1_2_3" style="mask-type:alpha" maskUnits="userSpaceOnUse" x="0" y="1" width="893" height="416">
<path d="M57.5365 59.8333C57.2917 66.5937 58.1927 73.3646 59.6042 80.099C61.3542 88.5677 64.0781 96.9792 66.6823 105.594C68.0052 109.891 69.3854 114.24 70.5781 118.589C71.7344 123.036 73.0156 127.599 74.349 132.13C77.0521 141.198 79.7865 150.432 82.474 159.844C84.1771 165.812 85.8438 171.865 87.4323 177.979C75.1511 180.693 61.5573 184.901 47.9323 192.292C40.6354 196.266 33.4688 201.333 26.7865 207.432C20.1771 213.604 14.1771 221 9.58855 229.453L7.91668 232.661C7.2396 233.958 6.92709 234.734 6.39064 235.932C5.33855 238.354 4.5521 240.615 3.8021 243.021C2.35418 247.797 1.39584 252.755 0.947928 257.786C0.0833445 267.844 0.989595 278.24 4.15626 288.234C7.3073 298.161 12.6771 307.958 21.2552 315.203C25.5313 318.786 30.6511 321.594 36.2083 323.036C41.7604 324.51 47.6302 324.568 53.1563 323.521C58.6875 322.464 63.9323 320.448 68.7344 317.823C73.5573 315.203 78.0052 312.141 82.1771 308.469C90.4896 301.052 96.3802 291.188 99.6198 280.792C102.948 270.375 104.031 259.552 104.036 248.943C104.052 238.312 102.995 227.823 101.391 217.547C100.021 208.917 98.2656 200.448 96.2969 192.12C106.995 190.693 116.563 190.339 124.542 190.391C133.349 190.536 140.313 191.109 144.938 191.578C147.198 191.797 149.068 192.026 150.339 192.188C151.016 192.266 151.5 192.323 151.818 192.365C152.135 198.698 152.839 205.344 153.969 212.344C156.526 228.203 160.448 239.792 165.901 247.297C167.776 249.344 169.823 250.193 172.208 249.51C174.594 248.828 176.13 247.297 176.813 244.568V243.885C178.344 237.578 179.708 230.589 181.073 222.745C183.292 208.422 186.698 194.104 191.302 179.615C195.734 165.12 203.234 153.698 213.297 145.344C215.682 143.641 218.578 142.448 221.818 142.104C225.057 141.766 227.615 143.297 229.323 146.536C231.198 149.776 231.026 155.917 229.151 164.953C227.958 169.724 225.911 176.031 223.354 183.703C219.432 194.271 215.854 206.38 212.271 220.188C208.693 234 207.156 248.146 207.672 262.807C208.01 277.474 212.271 291.281 220.115 304.578C221.818 307.307 223.865 309.521 226.083 311.229C228.469 312.932 231.198 313.271 234.266 312.589C236.313 311.911 238.359 310.031 240.234 306.964C242.109 303.729 244.495 297.927 247.563 289.745C250.464 281.391 256.599 261.958 265.979 231.099C266.953 228.281 267.984 225.312 269.063 222.214C269.531 224.328 270.135 226.219 270.927 227.859C276.552 239.115 284.224 243.542 293.943 241.328C303.828 238.943 311.844 229.734 317.979 213.708C324.292 211.495 330.083 208.083 335.031 203.479C336.229 202.359 337.401 201.208 338.542 200.031C338.51 200.214 338.474 200.401 338.448 200.583C335.714 216.781 336.74 232.802 341.344 248.49C342.365 252.068 343.729 255.651 345.604 259.229C347.307 262.641 349.865 265.536 352.932 267.755C357.198 270.141 360.776 270.141 363.677 268.094C366.401 266.047 368.792 262.979 370.667 259.057C372.542 255.135 373.906 251.557 374.927 248.49V248.146C379.193 256.333 384.135 262.979 389.932 268.266C395.557 273.552 402.547 275.083 410.901 272.87C417.719 270.312 422.495 265.875 425.563 259.573C428.63 253.26 430.849 246.615 432.214 240.135C434.427 230.927 435.109 222.234 434.427 213.88C433.745 205.526 432.724 198.708 431.188 193.422C429.656 187.969 428.63 185.068 428.292 184.729C436.641 190.693 444.146 193.25 451.135 192.401C451.568 192.349 451.974 192.271 452.396 192.203C452.188 193.005 451.974 193.802 451.823 194.615C450.12 203.823 449.266 210.641 449.266 215.245C449.266 225.302 451.313 235.531 455.406 246.271C458.818 254.115 463.417 258.036 469.557 258.036C473.646 258.036 478.589 255.651 484.214 250.703C489.328 245.932 493.25 241.156 495.807 236.385C498.365 231.781 500.411 227.005 501.948 222.234C502.12 232.974 503.651 245.422 506.208 259.401C508.766 273.38 512.516 286.339 517.292 298.271C522.063 310.375 526.839 318.047 531.609 321.458C536.214 325.036 540.135 326.74 543.031 326.74C547.297 326.74 552.068 324.526 557.016 320.26C557.016 320.094 557.182 320.094 557.354 319.922C561.615 315.318 565.88 307.474 570.479 296.052C574.911 284.63 580.198 268.094 586.167 246.271C592.135 224.448 595.885 209.276 597.76 200.75L593.156 199.729C589.917 214.391 584.12 235.875 575.427 264.172C566.729 292.474 559.573 310.031 553.771 316.682C550.875 319.583 547.635 321.115 544.057 321.115C542.521 321.115 540.818 320.771 539.109 319.922C536.385 318.385 533.995 314.979 531.953 309.354C525.474 289.578 522.063 273.552 521.724 261.276C521.208 249 521.042 240.984 521.042 237.068C521.042 220.188 522.234 203.651 524.62 187.115C541.229 175.391 557.208 162.089 572.422 147.109C572.354 147.266 572.266 147.401 572.198 147.562C569.125 154.38 568.786 161.88 571.344 170.234C573.901 178.589 580.036 185.75 589.583 191.714C595.214 195.125 600.839 197.516 606.464 198.875C612.089 200.073 616.693 200.922 620.786 201.266C622.828 201.604 624.703 201.776 626.068 202.115V202.286H625.901C625.214 204.161 624.021 206.719 622.318 209.958C619.76 214.734 617.031 220.87 613.964 228.203C611.068 235.531 608.849 243.885 607.656 253.26C606.292 262.641 606.802 272.87 609.359 283.948C612.089 294.349 616.693 300.49 623.172 302.365C629.651 304.068 635.958 302.365 642.094 297.078C643.115 296.224 643.969 295.37 644.818 294.521C645.672 293.495 646.526 292.135 647.719 290.089C648.911 288.214 650.448 285.146 652.323 281.391C654.37 277.474 656.927 272.016 660.167 265.37C663.406 258.547 667.495 249.854 672.609 239.281C677.125 229.88 682.448 218.615 688.729 205.479C688.677 206.469 688.641 207.453 688.641 208.422C688.641 216.781 689.495 223.255 691.714 227.859C697.339 239.115 705.01 243.542 714.729 241.328C724.615 238.943 732.625 229.734 738.766 213.708C745.073 211.495 750.87 208.083 755.813 203.479C756.021 203.292 756.208 203.083 756.411 202.891C752.604 235.062 751.552 268.109 753.599 302.193C745.417 333.734 740.984 357.427 740.302 373.286C739.453 388.969 741.495 400.729 746.438 408.573C747.464 410.792 748.828 412.667 750.359 414.198C751.896 415.562 753.771 416.417 756.156 416.589H756.328C762.979 416.078 766.901 410.281 768.26 398.854C769.458 387.432 769.797 370.552 769.286 348.219C768.776 325.375 769.115 296.74 770.307 262.469C772.182 256.5 775.083 248.146 779.005 237.578C783.094 226.839 787.359 216.609 792.13 206.547C796.906 196.49 801.51 189.156 805.943 184.729C809.349 181.49 813.443 179.781 818.219 179.615C823.161 179.615 827.594 181.49 831.516 185.75C835.432 189.844 837.995 196.828 838.849 206.719C833.385 211.151 826.573 217.458 818.385 225.812C810.375 234 805.089 241.5 802.703 247.979C800.995 254.115 802.021 259.229 805.599 263.49C812.932 269.797 821.286 270.479 831.172 265.536C840.891 260.76 848.734 252.24 854.87 239.964C861.01 227.859 862.198 213.88 858.62 198.026C858.62 198.026 867.234 189.208 892.547 175.01C880.099 179.953 868.339 186.089 857.089 193.422C854.698 186.771 851.12 181.146 846.349 176.547C841.573 172.109 835.604 169.38 828.448 168.531C825.203 168.359 821.458 169.042 817.536 170.578C813.615 172.109 808.672 175.693 802.703 180.974V181.146H802.531C796.563 187.286 790.938 196.661 785.484 208.938C780.026 221.38 775.255 233.484 771.161 245.25C772.865 222.745 774.401 207.573 775.938 199.562C776.104 198.875 776.104 198.026 776.276 197.344C777.297 191.036 777.813 185.578 777.469 180.974C777.297 176.375 773.891 174.328 767.75 174.667C761.443 175.01 758.031 181.828 757.354 195.125C757.349 195.151 757.344 195.177 757.344 195.203C752.036 201.026 746.458 205.292 740.641 207.911C742.516 200.073 743.026 191.885 742.344 183.021C741.49 174.156 739.104 166.484 735.182 160.005C731.094 153.359 725.297 149.776 717.797 148.755C710.807 148.927 705.177 152.505 700.917 159.667C696.828 166.995 694.438 174.328 694.099 181.828C693.411 183.651 692.813 185.448 692.255 187.219C682.26 208.062 674.12 225.021 667.839 238.089C663.063 248.318 658.969 256.672 655.906 263.318C652.661 269.797 650.281 274.917 648.401 278.667C646.526 282.417 644.99 285.312 643.969 287.188C642.948 289.062 642.094 290.427 641.411 291.109C640.557 291.964 639.875 292.812 639.026 293.495H638.854C634.594 297.078 630.505 298.099 627.094 296.396C623.51 294.859 621.635 290.089 621.635 282.417C621.979 270.312 624.021 259.401 627.604 250.021C631.182 240.474 634.932 231.953 638.854 224.62C643.458 216.094 646.526 208.938 647.891 202.63C649.083 196.49 646.87 191.036 641.073 186.26C638.005 184.047 634.766 182.51 631.521 181.828C628.286 181.318 624.875 180.974 621.125 180.807C617.031 180.807 612.599 180.297 607.656 179.443C610.385 167.849 610.729 158.641 608.682 151.823C606.635 145.177 603.568 140.573 599.474 138.182C595.214 135.625 591.292 134.604 587.37 135.286C585.396 135.708 583.589 136.349 581.927 137.161C594.203 123.266 603.88 107.464 610.885 89.5937C613.786 81.5833 615.318 73.9115 615.318 66.75C615.318 54.6458 611.74 45.9531 604.578 41.0104C600.49 38.1094 595.885 36.5781 590.599 36.5781C571.333 36.5781 552.578 51.5781 534.51 81.5833C522.063 102.214 512.516 131.365 505.87 168.703C504.161 167.167 502.12 165.802 499.729 164.953C495.13 163.417 490.865 162.562 486.604 162.562C479.615 162.562 473.307 164.953 467.682 169.552C461.339 174.922 456.865 180.729 454.182 186.969C452.047 187.453 449.677 187.688 447.042 187.625C439.714 187.453 431.531 182.51 423.005 172.625C420.109 167.677 417.036 163.078 413.458 158.984C412.604 158.302 411.755 158.13 410.901 158.474C410.047 158.641 409.365 159.323 409.198 160.349C409.198 161.198 410.047 162.562 411.411 164.781C412.776 166.995 414.313 169.042 415.844 171.26C417.38 173.307 418.401 174.667 418.917 175.349C419.938 176.714 420.792 178.417 421.474 180.125C421.641 180.807 421.813 181.318 421.984 181.656C427.609 195.297 430.167 208.083 429.995 220.188C429.656 232.292 427.438 242.182 423.349 249.854C419.083 257.526 413.969 261.615 407.661 261.958C403.573 261.448 399.651 258.375 396.068 252.411C392.49 246.443 389.589 240.135 387.375 233.318C385.328 226.495 384.307 221.724 384.307 218.823C384.307 217.802 384.474 217.12 384.474 216.948H384.646C384.646 216.781 383.964 216.094 382.771 215.245C381.75 214.219 380.214 213.37 378.51 212.344C376.802 211.323 374.927 210.469 373.052 210.13C371.349 209.62 369.641 209.786 368.281 210.641C366.917 211.495 365.891 213.198 365.552 215.927C365.208 220.188 365.724 224.62 367.083 229.224C368.448 233.828 369.984 238.089 371.859 242.182C371.349 244.057 370.495 246.615 369.302 249.854C368.109 253.094 366.745 255.99 365.208 258.719C363.505 261.276 361.802 262.469 359.927 262.469C358.563 262.13 357.37 261.276 356.516 259.911C355.661 258.375 354.979 257.016 354.641 255.818C351.401 245.932 350.375 235.359 351.573 223.938C352.594 212.688 354.979 201.432 358.563 190.526C361.969 179.443 365.724 169.38 369.474 160.177C370.323 157.448 369.474 155.234 367.083 153.188C364.698 151.141 361.969 150.12 358.729 149.776C355.661 149.609 353.276 150.63 351.911 153.188C346.74 165.443 342.891 178.026 340.24 190.844C333.854 198.958 327.031 204.677 319.859 207.911C321.734 200.073 322.245 191.885 321.563 183.021C320.708 174.156 318.323 166.484 314.401 160.005C310.307 153.359 304.516 149.776 297.01 148.755C290.021 148.927 284.396 152.505 280.135 159.667C276.042 166.995 273.656 174.328 273.313 181.828C269.734 191.375 267.859 200.24 267.859 208.422C267.859 209.333 267.875 210.208 267.896 211.078C265.432 218.255 263.115 224.953 261.031 231.099C249.271 269.63 241.599 292.984 237.844 300.995C233.927 309.182 230.688 310.547 227.786 305.26C226.422 302.875 225.74 300.656 225.573 298.099C225.573 297.927 225.401 297.76 225.401 297.589C223.693 283.609 223.865 270.141 226.083 257.182C228.297 244.229 231.365 230.927 235.12 217.12C236.484 212.344 237.677 207.401 239.042 202.458C244.323 179.953 245.688 163.589 243.302 153.359C240.917 142.958 236.484 137.333 230.005 135.969C223.693 134.776 217.047 136.651 210.568 141.594C203.068 147.219 197.271 154.552 192.839 163.417C188.406 172.453 184.995 182 182.604 192.229C180.047 202.286 178.177 212.177 176.474 221.891C175.104 229.562 173.745 236.385 172.208 242.693C168.286 217.802 167.948 194.104 171.359 171.599C171.359 169.724 169.99 168.359 167.094 167.339C164.193 166.484 161.13 166.146 158.063 166.484C154.99 166.823 153.115 168.021 152.604 169.896C152.448 171.021 152.333 172.182 152.214 173.339C152.141 173.333 152.083 173.328 152.005 173.323C150.75 173.255 148.88 173.146 146.245 173.062C141.089 172.885 133.677 172.766 124.188 173.24C115.276 173.698 104.536 174.615 92.4479 176.943C90.7656 170.698 89.0104 164.531 87.2188 158.464C84.4479 149.042 81.5521 139.839 79 130.781C77.7083 126.245 76.4948 121.812 75.3698 117.328C74.1563 112.771 72.8073 108.427 71.5208 104.125C68.8906 95.5521 66.7136 87.151 65.2292 79.0104C63.8229 70.8958 63.0677 62.8698 64.4792 55.7917C65.1875 52.2812 66.3906 49.0573 68.2031 46.4635C69.9479 43.8802 72.4323 41.7969 74.9063 40.5104C80.7396 37.4167 86.9167 36.4427 92.7761 36.1979C104.557 35.7969 114.635 39.3646 121.161 43.6875C127.76 48.1406 130.786 53.1979 132.073 56.6771C132.714 58.4427 133.047 59.8281 133.214 60.7812C133.38 61.7292 133.464 62.2187 133.464 62.2187L133.536 62.6198C133.604 63.0052 133.703 63.3854 133.828 63.7656C134.542 65.875 136.031 67.4948 137.87 68.4271C135.672 68.8281 134.005 70.7448 134.005 73.0625V75.4219C128.651 79.7292 107.896 98.1354 121.292 114.807C121.292 114.807 126.865 112.953 128.719 106.073C128.813 111.042 129.615 113.995 130.526 115.734C131.526 117.641 134.073 117.922 135.49 116.302C144.036 106.531 141.115 81.6927 140.448 76.8437H140.453C141.318 82.5104 146.667 115.615 153.219 115.781C159.005 115.927 155.016 98.7969 153.26 92.1875C152.854 90.6562 151.969 89.3125 150.776 88.2604C146.823 84.776 144.198 79.4948 143.042 76.8437H143.448V73.0625C143.448 71.5052 142.682 70.1354 141.521 69.276C142.385 69.276 143.266 69.1771 144.135 68.8854C148.396 67.4531 150.688 62.8385 149.255 58.5781C149.255 58.5781 148.995 57.8073 148.495 56.3073C147.979 54.8281 147.083 52.6406 145.599 49.9948C144.073 47.3698 141.917 44.2969 138.901 41.2656C135.88 38.2552 131.995 35.3177 127.339 32.9635C118.083 28.1406 105.802 25.4896 92.0886 26.8854C85.2969 27.6198 77.8854 29.6302 71.2083 33.5573C69.3906 34.6354 67.7396 35.901 66.25 37.3437C73.0417 10.8489 88.5938 1.11978 88.5938 1.11978C61.0573 13.3802 55.8802 38.1875 57.5365 59.8333ZM552.068 89.2552C562.125 68.6302 570.651 56.3542 577.641 52.2604C584.63 48.3385 590.089 46.2917 593.839 46.2917C597.417 46.2917 600.49 47.4844 603.214 49.875C608.161 54.1354 610.547 60.4427 610.547 68.7969C610.547 74.25 609.182 80.5625 606.453 87.8906C598.781 107.495 587.531 124.885 572.87 139.891C558.203 154.891 542.521 168.359 525.646 180.464C530.927 146.536 539.797 116.021 552.068 89.2552ZM135.755 76.8437H136.818C136.141 78.0833 134.969 79.8125 133.693 82.0729C134.323 79.8906 135.01 78.0625 135.755 76.8437ZM582.938 165.802C579.354 160.005 577.99 154.552 579.016 149.438C580.208 144.151 583.276 141.083 588.052 140.062C590.948 139.547 593.849 140.229 597.089 142.276C600.495 144.323 602.88 148.245 604.417 154.042C605.953 159.839 605.438 167.849 602.88 178.589C593.339 175.859 586.688 171.599 582.938 165.802ZM715.75 153.526C720.182 153.016 722.911 155.745 724.104 161.88C724.615 165.635 724.271 172.109 723.422 181.146C722.568 190.182 720.693 199.901 717.797 210.13C711.49 208.255 706.714 204.844 703.646 199.901C700.406 194.958 698.87 189.328 698.87 182.854C701.771 176.203 705.521 169.896 710.297 164.271L706.714 161.198C705.521 162.562 704.328 163.927 703.307 165.464C707.229 158.13 711.318 154.208 715.75 153.526ZM294.969 153.526C299.401 153.016 302.125 155.745 303.323 161.88C303.828 165.635 303.49 172.109 302.641 181.146C301.786 190.182 299.911 199.901 297.01 210.13C290.703 208.255 285.932 204.844 282.859 199.901C279.625 194.958 278.089 189.328 278.089 182.854C280.984 176.203 284.74 169.896 289.51 164.271L285.932 161.198C284.74 162.562 283.542 163.927 282.521 165.464C286.443 158.13 290.531 154.208 294.969 153.526ZM470.068 245.422C469.729 244.396 469.557 238.943 469.557 229.052C469.557 209.104 472.453 193.083 478.422 181.146C480.469 177.224 483.021 174.156 485.922 171.938C488.818 169.724 491.547 168.703 494.104 168.703C498.365 168.703 501.948 170.75 505.016 174.667C503.313 185.75 502.286 196.661 501.948 207.745C500.583 211.151 499.391 214.391 498.365 217.63C496.833 222.917 494.786 227.859 492.401 232.635C490.016 237.406 486.266 242.182 480.979 247.125C478.422 249.172 476.375 250.021 474.839 250.021C472.625 250.021 470.917 248.49 470.068 245.422ZM38.3281 315.354C34.0313 314.099 30.0938 311.812 26.724 308.823C19.9636 302.802 15.4948 294.312 13.0104 285.568C8.01564 267.901 10.5938 248.938 19.2917 234.979C23.5573 227.786 28.9636 221.625 34.8906 216.479C40.875 211.365 47.4167 207.312 54.0521 204.099C66.7188 198.026 79.5052 194.792 91.0833 192.896C92.9896 201.271 94.6771 209.766 95.9636 218.375C97.4375 228.453 98.3854 238.682 98.2552 248.896C98.0625 259.083 96.8021 269.302 93.5677 278.792C90.4115 288.281 84.974 296.875 77.5938 303.229C70.0886 309.479 61.0313 314.521 51.8542 316.094C50.099 316.375 48.3438 316.516 46.6042 316.516C43.7761 316.516 40.9896 316.135 38.3281 315.354ZM695.974 225.812C694.099 221.208 693.245 215.927 693.417 209.786C693.589 203.823 694.271 198.193 695.464 193.422C698.359 203.99 705.349 211.151 716.432 214.562C715.24 218.312 714.214 221.208 713.365 223.089C712.344 225.13 711.318 226.495 710.464 227.521C709.615 228.37 708.589 229.052 707.568 229.734C705.776 230.578 704.151 230.99 702.693 230.99C699.719 230.995 697.464 229.25 695.974 225.812ZM275.188 225.812C273.536 221.75 272.724 217.125 272.661 211.88C273.953 208.177 275.302 204.307 276.719 200.24L273.568 199.193C273.875 197.177 274.229 195.224 274.677 193.422C277.578 203.99 284.568 211.151 295.651 214.562C294.453 218.312 293.432 221.208 292.578 223.089C291.557 225.13 290.531 226.495 289.682 227.521C288.828 228.37 287.807 229.052 286.781 229.734C284.99 230.578 283.365 230.99 281.911 230.99C278.932 230.995 276.677 229.25 275.188 225.812ZM809.01 260.083C806.625 257.354 806.109 253.776 807.307 249.344C809.349 243.714 814.125 237.234 821.286 229.734C828.448 222.234 834.411 216.609 839.188 212.688C839.188 222.234 837.313 231.271 833.729 239.792C830.318 248.318 826.229 254.625 821.458 258.891C818.896 261.167 816.438 262.333 814.141 262.333C812.318 262.333 810.594 261.594 809.01 260.083ZM752.75 409.083C751.729 408.234 751.042 407.208 750.531 406.188C746.099 398.516 744.224 388.115 744.906 374.818C745.589 361.693 748.828 342.938 754.453 318.729C755.646 335.604 756.672 350.266 757.865 362.542C759.229 377.547 759.911 388.969 760.078 397.151C760.078 405.167 758.885 409.599 756.156 410.62H755.99C755.99 410.792 755.818 410.792 755.818 410.792H755.646C754.625 410.62 753.771 410.109 752.75 409.083Z" fill="white"/>
</mask>
<g mask="url(#mask1_2_3)">
<mask id="mask2_2_3" style="mask-type:alpha" maskUnits="userSpaceOnUse" x="0" y="1" width="893" height="416">
<path d="M57.5365 59.8333C57.2917 66.5937 58.1927 73.3646 59.6042 80.099C61.3542 88.5677 64.0781 96.9792 66.6823 105.594C68.0052 109.891 69.3854 114.24 70.5781 118.589C71.7344 123.036 73.0156 127.599 74.349 132.13C77.0521 141.198 79.7865 150.432 82.474 159.844C84.1771 165.812 85.8438 171.865 87.4323 177.979C75.1511 180.693 61.5573 184.901 47.9323 192.292C40.6354 196.266 33.4688 201.333 26.7865 207.432C20.1771 213.604 14.1771 221 9.58855 229.453L7.91668 232.661C7.2396 233.958 6.92709 234.734 6.39064 235.932C5.33855 238.354 4.5521 240.615 3.8021 243.021C2.35418 247.797 1.39584 252.755 0.947928 257.786C0.0833445 267.844 0.989595 278.24 4.15626 288.234C7.3073 298.161 12.6771 307.958 21.2552 315.203C25.5313 318.786 30.6511 321.594 36.2083 323.036C41.7604 324.51 47.6302 324.568 53.1563 323.521C58.6875 322.464 63.9323 320.448 68.7344 317.823C73.5573 315.203 78.0052 312.141 82.1771 308.469C90.4896 301.052 96.3802 291.188 99.6198 280.792C102.948 270.375 104.031 259.552 104.036 248.943C104.052 238.312 102.995 227.823 101.391 217.547C100.021 208.917 98.2656 200.448 96.2969 192.12C106.995 190.693 116.563 190.339 124.542 190.391C133.349 190.536 140.313 191.109 144.938 191.578C147.198 191.797 149.068 192.026 150.339 192.188C151.016 192.266 151.5 192.323 151.818 192.365C152.135 198.698 152.839 205.344 153.969 212.344C156.526 228.203 160.448 239.792 165.901 247.297C167.776 249.344 169.823 250.193 172.208 249.51C174.594 248.828 176.13 247.297 176.813 244.568V243.885C178.344 237.578 179.708 230.589 181.073 222.745C183.292 208.422 186.698 194.104 191.302 179.615C195.734 165.12 203.234 153.698 213.297 145.344C215.682 143.641 218.578 142.448 221.818 142.104C225.057 141.766 227.615 143.297 229.323 146.536C231.198 149.776 231.026 155.917 229.151 164.953C227.958 169.724 225.911 176.031 223.354 183.703C219.432 194.271 215.854 206.38 212.271 220.188C208.693 234 207.156 248.146 207.672 262.807C208.01 277.474 212.271 291.281 220.115 304.578C221.818 307.307 223.865 309.521 226.083 311.229C228.469 312.932 231.198 313.271 234.266 312.589C236.313 311.911 238.359 310.031 240.234 306.964C242.109 303.729 244.495 297.927 247.563 289.745C250.464 281.391 256.599 261.958 265.979 231.099C266.953 228.281 267.984 225.312 269.063 222.214C269.531 224.328 270.135 226.219 270.927 227.859C276.552 239.115 284.224 243.542 293.943 241.328C303.828 238.943 311.844 229.734 317.979 213.708C324.292 211.495 330.083 208.083 335.031 203.479C336.229 202.359 337.401 201.208 338.542 200.031C338.51 200.214 338.474 200.401 338.448 200.583C335.714 216.781 336.74 232.802 341.344 248.49C342.365 252.068 343.729 255.651 345.604 259.229C347.307 262.641 349.865 265.536 352.932 267.755C357.198 270.141 360.776 270.141 363.677 268.094C366.401 266.047 368.792 262.979 370.667 259.057C372.542 255.135 373.906 251.557 374.927 248.49V248.146C379.193 256.333 384.135 262.979 389.932 268.266C395.557 273.552 402.547 275.083 410.901 272.87C417.719 270.312 422.495 265.875 425.563 259.573C428.63 253.26 430.849 246.615 432.214 240.135C434.427 230.927 435.109 222.234 434.427 213.88C433.745 205.526 432.724 198.708 431.188 193.422C429.656 187.969 428.63 185.068 428.292 184.729C436.641 190.693 444.146 193.25 451.135 192.401C451.568 192.349 451.974 192.271 452.396 192.203C452.188 193.005 451.974 193.802 451.823 194.615C450.12 203.823 449.266 210.641 449.266 215.245C449.266 225.302 451.313 235.531 455.406 246.271C458.818 254.115 463.417 258.036 469.557 258.036C473.646 258.036 478.589 255.651 484.214 250.703C489.328 245.932 493.25 241.156 495.807 236.385C498.365 231.781 500.411 227.005 501.948 222.234C502.12 232.974 503.651 245.422 506.208 259.401C508.766 273.38 512.516 286.339 517.292 298.271C522.063 310.375 526.839 318.047 531.609 321.458C536.214 325.036 540.135 326.74 543.031 326.74C547.297 326.74 552.068 324.526 557.016 320.26C557.016 320.094 557.182 320.094 557.354 319.922C561.615 315.318 565.88 307.474 570.479 296.052C574.911 284.63 580.198 268.094 586.167 246.271C592.135 224.448 595.885 209.276 597.76 200.75L593.156 199.729C589.917 214.391 584.12 235.875 575.427 264.172C566.729 292.474 559.573 310.031 553.771 316.682C550.875 319.583 547.635 321.115 544.057 321.115C542.521 321.115 540.818 320.771 539.109 319.922C536.385 318.385 533.995 314.979 531.953 309.354C525.474 289.578 522.063 273.552 521.724 261.276C521.208 249 521.042 240.984 521.042 237.068C521.042 220.188 522.234 203.651 524.62 187.115C541.229 175.391 557.208 162.089 572.422 147.109C572.354 147.266 572.266 147.401 572.198 147.562C569.125 154.38 568.786 161.88 571.344 170.234C573.901 178.589 580.036 185.75 589.583 191.714C595.214 195.125 600.839 197.516 606.464 198.875C612.089 200.073 616.693 200.922 620.786 201.266C622.828 201.604 624.703 201.776 626.068 202.115V202.286H625.901C625.214 204.161 624.021 206.719 622.318 209.958C619.76 214.734 617.031 220.87 613.964 228.203C611.068 235.531 608.849 243.885 607.656 253.26C606.292 262.641 606.802 272.87 609.359 283.948C612.089 294.349 616.693 300.49 623.172 302.365C629.651 304.068 635.958 302.365 642.094 297.078C643.115 296.224 643.969 295.37 644.818 294.521C645.672 293.495 646.526 292.135 647.719 290.089C648.911 288.214 650.448 285.146 652.323 281.391C654.37 277.474 656.927 272.016 660.167 265.37C663.406 258.547 667.495 249.854 672.609 239.281C677.125 229.88 682.448 218.615 688.729 205.479C688.677 206.469 688.641 207.453 688.641 208.422C688.641 216.781 689.495 223.255 691.714 227.859C697.339 239.115 705.01 243.542 714.729 241.328C724.615 238.943 732.625 229.734 738.766 213.708C745.073 211.495 750.87 208.083 755.813 203.479C756.021 203.292 756.208 203.083 756.411 202.891C752.604 235.062 751.552 268.109 753.599 302.193C745.417 333.734 740.984 357.427 740.302 373.286C739.453 388.969 741.495 400.729 746.438 408.573C747.464 410.792 748.828 412.667 750.359 414.198C751.896 415.562 753.771 416.417 756.156 416.589H756.328C762.979 416.078 766.901 410.281 768.26 398.854C769.458 387.432 769.797 370.552 769.286 348.219C768.776 325.375 769.115 296.74 770.307 262.469C772.182 256.5 775.083 248.146 779.005 237.578C783.094 226.839 787.359 216.609 792.13 206.547C796.906 196.49 801.51 189.156 805.943 184.729C809.349 181.49 813.443 179.781 818.219 179.615C823.161 179.615 827.594 181.49 831.516 185.75C835.432 189.844 837.995 196.828 838.849 206.719C833.385 211.151 826.573 217.458 818.385 225.812C810.375 234 805.089 241.5 802.703 247.979C800.995 254.115 802.021 259.229 805.599 263.49C812.932 269.797 821.286 270.479 831.172 265.536C840.891 260.76 848.734 252.24 854.87 239.964C861.01 227.859 862.198 213.88 858.62 198.026C858.62 198.026 867.234 189.208 892.547 175.01C880.099 179.953 868.339 186.089 857.089 193.422C854.698 186.771 851.12 181.146 846.349 176.547C841.573 172.109 835.604 169.38 828.448 168.531C825.203 168.359 821.458 169.042 817.536 170.578C813.615 172.109 808.672 175.693 802.703 180.974V181.146H802.531C796.563 187.286 790.938 196.661 785.484 208.938C780.026 221.38 775.255 233.484 771.161 245.25C772.865 222.745 774.401 207.573 775.938 199.562C776.104 198.875 776.104 198.026 776.276 197.344C777.297 191.036 777.813 185.578 777.469 180.974C777.297 176.375 773.891 174.328 767.75 174.667C761.443 175.01 758.031 181.828 757.354 195.125C757.349 195.151 757.344 195.177 757.344 195.203C752.036 201.026 746.458 205.292 740.641 207.911C742.516 200.073 743.026 191.885 742.344 183.021C741.49 174.156 739.104 166.484 735.182 160.005C731.094 153.359 725.297 149.776 717.797 148.755C710.807 148.927 705.177 152.505 700.917 159.667C696.828 166.995 694.438 174.328 694.099 181.828C693.411 183.651 692.813 185.448 692.255 187.219C682.26 208.062 674.12 225.021 667.839 238.089C663.063 248.318 658.969 256.672 655.906 263.318C652.661 269.797 650.281 274.917 648.401 278.667C646.526 282.417 644.99 285.312 643.969 287.188C642.948 289.062 642.094 290.427 641.411 291.109C640.557 291.964 639.875 292.812 639.026 293.495H638.854C634.594 297.078 630.505 298.099 627.094 296.396C623.51 294.859 621.635 290.089 621.635 282.417C621.979 270.312 624.021 259.401 627.604 250.021C631.182 240.474 634.932 231.953 638.854 224.62C643.458 216.094 646.526 208.938 647.891 202.63C649.083 196.49 646.87 191.036 641.073 186.26C638.005 184.047 634.766 182.51 631.521 181.828C628.286 181.318 624.875 180.974 621.125 180.807C617.031 180.807 612.599 180.297 607.656 179.443C610.385 167.849 610.729 158.641 608.682 151.823C606.635 145.177 603.568 140.573 599.474 138.182C595.214 135.625 591.292 134.604 587.37 135.286C585.396 135.708 583.589 136.349 581.927 137.161C594.203 123.266 603.88 107.464 610.885 89.5937C613.786 81.5833 615.318 73.9115 615.318 66.75C615.318 54.6458 611.74 45.9531 604.578 41.0104C600.49 38.1094 595.885 36.5781 590.599 36.5781C571.333 36.5781 552.578 51.5781 534.51 81.5833C522.063 102.214 512.516 131.365 505.87 168.703C504.161 167.167 502.12 165.802 499.729 164.953C495.13 163.417 490.865 162.562 486.604 162.562C479.615 162.562 473.307 164.953 467.682 169.552C461.339 174.922 456.865 180.729 454.182 186.969C452.047 187.453 449.677 187.688 447.042 187.625C439.714 187.453 431.531 182.51 423.005 172.625C420.109 167.677 417.036 163.078 413.458 158.984C412.604 158.302 411.755 158.13 410.901 158.474C410.047 158.641 409.365 159.323 409.198 160.349C409.198 161.198 410.047 162.562 411.411 164.781C412.776 166.995 414.313 169.042 415.844 171.26C417.38 173.307 418.401 174.667 418.917 175.349C419.938 176.714 420.792 178.417 421.474 180.125C421.641 180.807 421.813 181.318 421.984 181.656C427.609 195.297 430.167 208.083 429.995 220.188C429.656 232.292 427.438 242.182 423.349 249.854C419.083 257.526 413.969 261.615 407.661 261.958C403.573 261.448 399.651 258.375 396.068 252.411C392.49 246.443 389.589 240.135 387.375 233.318C385.328 226.495 384.307 221.724 384.307 218.823C384.307 217.802 384.474 217.12 384.474 216.948H384.646C384.646 216.781 383.964 216.094 382.771 215.245C381.75 214.219 380.214 213.37 378.51 212.344C376.802 211.323 374.927 210.469 373.052 210.13C371.349 209.62 369.641 209.786 368.281 210.641C366.917 211.495 365.891 213.198 365.552 215.927C365.208 220.188 365.724 224.62 367.083 229.224C368.448 233.828 369.984 238.089 371.859 242.182C371.349 244.057 370.495 246.615 369.302 249.854C368.109 253.094 366.745 255.99 365.208 258.719C363.505 261.276 361.802 262.469 359.927 262.469C358.563 262.13 357.37 261.276 356.516 259.911C355.661 258.375 354.979 257.016 354.641 255.818C351.401 245.932 350.375 235.359 351.573 223.938C352.594 212.688 354.979 201.432 358.563 190.526C361.969 179.443 365.724 169.38 369.474 160.177C370.323 157.448 369.474 155.234 367.083 153.188C364.698 151.141 361.969 150.12 358.729 149.776C355.661 149.609 353.276 150.63 351.911 153.188C346.74 165.443 342.891 178.026 340.24 190.844C333.854 198.958 327.031 204.677 319.859 207.911C321.734 200.073 322.245 191.885 321.563 183.021C320.708 174.156 318.323 166.484 314.401 160.005C310.307 153.359 304.516 149.776 297.01 148.755C290.021 148.927 284.396 152.505 280.135 159.667C276.042 166.995 273.656 174.328 273.313 181.828C269.734 191.375 267.859 200.24 267.859 208.422C267.859 209.333 267.875 210.208 267.896 211.078C265.432 218.255 263.115 224.953 261.031 231.099C249.271 269.63 241.599 292.984 237.844 300.995C233.927 309.182 230.688 310.547 227.786 305.26C226.422 302.875 225.74 300.656 225.573 298.099C225.573 297.927 225.401 297.76 225.401 297.589C223.693 283.609 223.865 270.141 226.083 257.182C228.297 244.229 231.365 230.927 235.12 217.12C236.484 212.344 237.677 207.401 239.042 202.458C244.323 179.953 245.688 163.589 243.302 153.359C240.917 142.958 236.484 137.333 230.005 135.969C223.693 134.776 217.047 136.651 210.568 141.594C203.068 147.219 197.271 154.552 192.839 163.417C188.406 172.453 184.995 182 182.604 192.229C180.047 202.286 178.177 212.177 176.474 221.891C175.104 229.562 173.745 236.385 172.208 242.693C168.286 217.802 167.948 194.104 171.359 171.599C171.359 169.724 169.99 168.359 167.094 167.339C164.193 166.484 161.13 166.146 158.063 166.484C154.99 166.823 153.115 168.021 152.604 169.896C152.448 171.021 152.333 172.182 152.214 173.339C152.141 173.333 152.083 173.328 152.005 173.323C150.75 173.255 148.88 173.146 146.245 173.062C141.089 172.885 133.677 172.766 124.188 173.24C115.276 173.698 104.536 174.615 92.4479 176.943C90.7656 170.698 89.0104 164.531 87.2188 158.464C84.4479 149.042 81.5521 139.839 79 130.781C77.7083 126.245 76.4948 121.812 75.3698 117.328C74.1563 112.771 72.8073 108.427 71.5208 104.125C68.8906 95.5521 66.7136 87.151 65.2292 79.0104C63.8229 70.8958 63.0677 62.8698 64.4792 55.7917C65.1875 52.2812 66.3906 49.0573 68.2031 46.4635C69.9479 43.8802 72.4323 41.7969 74.9063 40.5104C80.7396 37.4167 86.9167 36.4427 92.7761 36.1979C104.557 35.7969 114.635 39.3646 121.161 43.6875C127.76 48.1406 130.786 53.1979 132.073 56.6771C132.714 58.4427 133.047 59.8281 133.214 60.7812C133.38 61.7292 133.464 62.2187 133.464 62.2187L133.536 62.6198C133.604 63.0052 133.703 63.3854 133.828 63.7656C134.542 65.875 136.031 67.4948 137.87 68.4271C135.672 68.8281 134.005 70.7448 134.005 73.0625V75.4219C128.651 79.7292 107.896 98.1354 121.292 114.807C121.292 114.807 126.865 112.953 128.719 106.073C128.813 111.042 129.615 113.995 130.526 115.734C131.526 117.641 134.073 117.922 135.49 116.302C144.036 106.531 141.115 81.6927 140.448 76.8437H140.453C141.318 82.5104 146.667 115.615 153.219 115.781C159.005 115.927 155.016 98.7969 153.26 92.1875C152.854 90.6562 151.969 89.3125 150.776 88.2604C146.823 84.776 144.198 79.4948 143.042 76.8437H143.448V73.0625C143.448 71.5052 142.682 70.1354 141.521 69.276C142.385 69.276 143.266 69.1771 144.135 68.8854C148.396 67.4531 150.688 62.8385 149.255 58.5781C149.255 58.5781 148.995 57.8073 148.495 56.3073C147.979 54.8281 147.083 52.6406 145.599 49.9948C144.073 47.3698 141.917 44.2969 138.901 41.2656C135.88 38.2552 131.995 35.3177 127.339 32.9635C118.083 28.1406 105.802 25.4896 92.0886 26.8854C85.2969 27.6198 77.8854 29.6302 71.2083 33.5573C69.3906 34.6354 67.7396 35.901 66.25 37.3437C73.0417 10.8489 88.5938 1.11978 88.5938 1.11978C61.0573 13.3802 55.8802 38.1875 57.5365 59.8333ZM552.068 89.2552C562.125 68.6302 570.651 56.3542 577.641 52.2604C584.63 48.3385 590.089 46.2917 593.839 46.2917C597.417 46.2917 600.49 47.4844 603.214 49.875C608.161 54.1354 610.547 60.4427 610.547 68.7969C610.547 74.25 609.182 80.5625 606.453 87.8906C598.781 107.495 587.531 124.885 572.87 139.891C558.203 154.891 542.521 168.359 525.646 180.464C530.927 146.536 539.797 116.021 552.068 89.2552ZM135.755 76.8437H136.818C136.141 78.0833 134.969 79.8125 133.693 82.0729C134.323 79.8906 135.01 78.0625 135.755 76.8437ZM582.938 165.802C579.354 160.005 577.99 154.552 579.016 149.438C580.208 144.151 583.276 141.083 588.052 140.062C590.948 139.547 593.849 140.229 597.089 142.276C600.495 144.323 602.88 148.245 604.417 154.042C605.953 159.839 605.438 167.849 602.88 178.589C593.339 175.859 586.688 171.599 582.938 165.802ZM715.75 153.526C720.182 153.016 722.911 155.745 724.104 161.88C724.615 165.635 724.271 172.109 723.422 181.146C722.568 190.182 720.693 199.901 717.797 210.13C711.49 208.255 706.714 204.844 703.646 199.901C700.406 194.958 698.87 189.328 698.87 182.854C701.771 176.203 705.521 169.896 710.297 164.271L706.714 161.198C705.521 162.562 704.328 163.927 703.307 165.464C707.229 158.13 711.318 154.208 715.75 153.526ZM294.969 153.526C299.401 153.016 302.125 155.745 303.323 161.88C303.828 165.635 303.49 172.109 302.641 181.146C301.786 190.182 299.911 199.901 297.01 210.13C290.703 208.255 285.932 204.844 282.859 199.901C279.625 194.958 278.089 189.328 278.089 182.854C280.984 176.203 284.74 169.896 289.51 164.271L285.932 161.198C284.74 162.562 283.542 163.927 282.521 165.464C286.443 158.13 290.531 154.208 294.969 153.526ZM470.068 245.422C469.729 244.396 469.557 238.943 469.557 229.052C469.557 209.104 472.453 193.083 478.422 181.146C480.469 177.224 483.021 174.156 485.922 171.938C488.818 169.724 491.547 168.703 494.104 168.703C498.365 168.703 501.948 170.75 505.016 174.667C503.313 185.75 502.286 196.661 501.948 207.745C500.583 211.151 499.391 214.391 498.365 217.63C496.833 222.917 494.786 227.859 492.401 232.635C490.016 237.406 486.266 242.182 480.979 247.125C478.422 249.172 476.375 250.021 474.839 250.021C472.625 250.021 470.917 248.49 470.068 245.422ZM38.3281 315.354C34.0313 314.099 30.0938 311.812 26.724 308.823C19.9636 302.802 15.4948 294.312 13.0104 285.568C8.01564 267.901 10.5938 248.938 19.2917 234.979C23.5573 227.786 28.9636 221.625 34.8906 216.479C40.875 211.365 47.4167 207.312 54.0521 204.099C66.7188 198.026 79.5052 194.792 91.0833 192.896C92.9896 201.271 94.6771 209.766 95.9636 218.375C97.4375 228.453 98.3854 238.682 98.2552 248.896C98.0625 259.083 96.8021 269.302 93.5677 278.792C90.4115 288.281 84.974 296.875 77.5938 303.229C70.0886 309.479 61.0313 314.521 51.8542 316.094C50.099 316.375 48.3438 316.516 46.6042 316.516C43.7761 316.516 40.9896 316.135 38.3281 315.354ZM695.974 225.812C694.099 221.208 693.245 215.927 693.417 209.786C693.589 203.823 694.271 198.193 695.464 193.422C698.359 203.99 705.349 211.151 716.432 214.562C715.24 218.312 714.214 221.208 713.365 223.089C712.344 225.13 711.318 226.495 710.464 227.521C709.615 228.37 708.589 229.052 707.568 229.734C705.776 230.578 704.151 230.99 702.693 230.99C699.719 230.995 697.464 229.25 695.974 225.812ZM275.188 225.812C273.536 221.75 272.724 217.125 272.661 211.88C273.953 208.177 275.302 204.307 276.719 200.24L273.568 199.193C273.875 197.177 274.229 195.224 274.677 193.422C277.578 203.99 284.568 211.151 295.651 214.562C294.453 218.312 293.432 221.208 292.578 223.089C291.557 225.13 290.531 226.495 289.682 227.521C288.828 228.37 287.807 229.052 286.781 229.734C284.99 230.578 283.365 230.99 281.911 230.99C278.932 230.995 276.677 229.25 275.188 225.812ZM809.01 260.083C806.625 257.354 806.109 253.776 807.307 249.344C809.349 243.714 814.125 237.234 821.286 229.734C828.448 222.234 834.411 216.609 839.188 212.688C839.188 222.234 837.313 231.271 833.729 239.792C830.318 248.318 826.229 254.625 821.458 258.891C818.896 261.167 816.438 262.333 814.141 262.333C812.318 262.333 810.594 261.594 809.01 260.083ZM752.75 409.083C751.729 408.234 751.042 407.208 750.531 406.188C746.099 398.516 744.224 388.115 744.906 374.818C745.589 361.693 748.828 342.938 754.453 318.729C755.646 335.604 756.672 350.266 757.865 362.542C759.229 377.547 759.911 388.969 760.078 397.151C760.078 405.167 758.885 409.599 756.156 410.62H755.99C755.99 410.792 755.818 410.792 755.818 410.792H755.646C754.625 410.62 753.771 410.109 752.75 409.083Z" fill="white"/>
</mask>
<g mask="url(#mask2_2_3)">
<path d="M0.0833435 1.11978V416.589H892.547V1.11978H0.0833435Z" fill="white"/>
</g>
</g>
</g>
<path d="M46.624 354.352C47.072 354.352 47.536 354.48 48.016 354.736C48.528 354.96 48.912 355.264 49.168 355.648L60.832 373.6L58.432 373.504L70.384 355.648C70.992 354.784 71.776 354.352 72.736 354.352C73.504 354.352 74.192 354.624 74.8 355.168C75.408 355.712 75.712 356.416 75.712 357.28V385.072C75.712 385.904 75.44 386.608 74.896 387.184C74.352 387.728 73.632 388 72.736 388C71.84 388 71.104 387.728 70.528 387.184C69.984 386.608 69.712 385.904 69.712 385.072V362.464L71.584 362.896L61.792 377.824C61.504 378.176 61.136 378.48 60.688 378.736C60.272 378.992 59.84 379.104 59.392 379.072C58.976 379.104 58.544 378.992 58.096 378.736C57.68 378.48 57.328 378.176 57.04 377.824L47.872 363.328L49.12 360.784V385.072C49.12 385.904 48.864 386.608 48.352 387.184C47.84 387.728 47.168 388 46.336 388C45.536 388 44.88 387.728 44.368 387.184C43.856 386.608 43.6 385.904 43.6 385.072V357.28C43.6 356.48 43.888 355.792 44.464 355.216C45.072 354.64 45.792 354.352 46.624 354.352ZM103.472 361.84C104.304 361.84 104.992 362.112 105.536 362.656C106.08 363.2 106.352 363.904 106.352 364.768V385.072C106.352 385.904 106.08 386.608 105.536 387.184C104.992 387.728 104.304 388 103.472 388C102.64 388 101.952 387.728 101.408 387.184C100.864 386.608 100.592 385.904 100.592 385.072V382.72L101.648 383.152C101.648 383.568 101.424 384.08 100.976 384.688C100.528 385.264 99.9201 385.84 99.1521 386.416C98.3841 386.992 97.4721 387.488 96.4161 387.904C95.3921 388.288 94.2721 388.48 93.0561 388.48C90.8481 388.48 88.8481 387.92 87.0561 386.8C85.2641 385.648 83.8401 384.08 82.7841 382.096C81.7601 380.08 81.2481 377.776 81.2481 375.184C81.2481 372.56 81.7601 370.256 82.7841 368.272C83.8401 366.256 85.2481 364.688 87.0081 363.568C88.7681 362.416 90.7201 361.84 92.8641 361.84C94.2401 361.84 95.5041 362.048 96.6561 362.464C97.8081 362.88 98.8001 363.408 99.6321 364.048C100.496 364.688 101.152 365.344 101.6 366.016C102.08 366.656 102.32 367.2 102.32 367.648L100.592 368.272V364.768C100.592 363.936 100.864 363.248 101.408 362.704C101.952 362.128 102.64 361.84 103.472 361.84ZM93.7761 383.2C95.1841 383.2 96.4161 382.848 97.4721 382.144C98.5281 381.44 99.3441 380.48 99.9201 379.264C100.528 378.048 100.832 376.688 100.832 375.184C100.832 373.648 100.528 372.272 99.9201 371.056C99.3441 369.84 98.5281 368.88 97.4721 368.176C96.4161 367.472 95.1841 367.12 93.7761 367.12C92.4001 367.12 91.1841 367.472 90.1281 368.176C89.0721 368.88 88.2401 369.84 87.6321 371.056C87.0561 372.272 86.7681 373.648 86.7681 375.184C86.7681 376.688 87.0561 378.048 87.6321 379.264C88.2401 380.48 89.0721 381.44 90.1281 382.144C91.1841 382.848 92.4001 383.2 93.7761 383.2ZM115.949 388C115.117 388 114.429 387.728 113.885 387.184C113.341 386.608 113.069 385.904 113.069 385.072V355.408C113.069 354.576 113.341 353.888 113.885 353.344C114.429 352.768 115.117 352.48 115.949 352.48C116.781 352.48 117.469 352.768 118.013 353.344C118.557 353.888 118.829 354.576 118.829 355.408V385.072C118.829 385.904 118.557 386.608 118.013 387.184C117.469 387.728 116.781 388 115.949 388ZM131.213 362.32C131.949 362.32 132.589 362.624 133.133 363.232C133.677 363.84 133.949 364.432 133.949 365.008C133.949 365.776 133.565 366.496 132.797 367.168L118.349 380.464L118.109 373.84L129.101 363.232C129.709 362.624 130.413 362.32 131.213 362.32ZM131.933 387.952C131.101 387.952 130.397 387.632 129.821 386.992L120.941 377.584L125.309 373.552L133.949 382.96C134.557 383.6 134.861 384.32 134.861 385.12C134.861 385.952 134.525 386.64 133.853 387.184C133.213 387.696 132.573 387.952 131.933 387.952ZM150.935 388.48C148.215 388.48 145.847 387.92 143.831 386.8C141.847 385.648 140.311 384.096 139.223 382.144C138.167 380.192 137.639 377.984 137.639 375.52C137.639 372.64 138.215 370.192 139.367 368.176C140.551 366.128 142.087 364.56 143.975 363.472C145.863 362.384 147.863 361.84 149.975 361.84C151.607 361.84 153.143 362.176 154.583 362.848C156.055 363.52 157.351 364.448 158.471 365.632C159.591 366.784 160.471 368.128 161.111 369.664C161.783 371.2 162.119 372.832 162.119 374.56C162.087 375.328 161.783 375.952 161.207 376.432C160.631 376.912 159.959 377.152 159.191 377.152H140.855L139.415 372.352H157.031L155.975 373.312V372.016C155.911 371.088 155.575 370.256 154.967 369.52C154.391 368.784 153.655 368.208 152.759 367.792C151.895 367.344 150.967 367.12 149.975 367.12C149.015 367.12 148.119 367.248 147.287 367.504C146.455 367.76 145.735 368.192 145.127 368.8C144.519 369.408 144.039 370.224 143.687 371.248C143.335 372.272 143.159 373.568 143.159 375.136C143.159 376.864 143.511 378.336 144.215 379.552C144.951 380.736 145.879 381.648 146.999 382.288C148.151 382.896 149.367 383.2 150.647 383.2C151.831 383.2 152.775 383.104 153.479 382.912C154.183 382.72 154.743 382.496 155.159 382.24C155.607 381.952 156.007 381.712 156.359 381.52C156.935 381.232 157.479 381.088 157.991 381.088C158.695 381.088 159.271 381.328 159.719 381.808C160.199 382.288 160.439 382.848 160.439 383.488C160.439 384.352 159.991 385.136 159.095 385.84C158.263 386.544 157.095 387.168 155.591 387.712C154.087 388.224 152.535 388.48 150.935 388.48ZM191.487 354.352C192.319 354.352 192.991 354.64 193.503 355.216C194.015 355.76 194.271 356.448 194.271 357.28V374.656C194.271 377.312 193.695 379.664 192.543 381.712C191.423 383.76 189.871 385.36 187.887 386.512C185.903 387.664 183.599 388.24 180.975 388.24C178.351 388.24 176.031 387.664 174.015 386.512C172.031 385.36 170.463 383.76 169.311 381.712C168.191 379.664 167.631 377.312 167.631 374.656V357.28C167.631 356.448 167.919 355.76 168.495 355.216C169.071 354.64 169.807 354.352 170.703 354.352C171.439 354.352 172.095 354.64 172.671 355.216C173.279 355.76 173.583 356.448 173.583 357.28V374.656C173.583 376.256 173.919 377.648 174.591 378.832C175.295 379.984 176.207 380.88 177.327 381.52C178.479 382.16 179.695 382.48 180.975 382.48C182.351 382.48 183.631 382.16 184.815 381.52C185.999 380.88 186.959 379.984 187.695 378.832C188.431 377.648 188.799 376.256 188.799 374.656V357.28C188.799 356.448 189.039 355.76 189.519 355.216C189.999 354.64 190.655 354.352 191.487 354.352ZM214.291 361.84C216.531 361.84 218.531 362.416 220.291 363.568C222.083 364.688 223.491 366.24 224.515 368.224C225.571 370.208 226.099 372.512 226.099 375.136C226.099 377.76 225.571 380.08 224.515 382.096C223.491 384.08 222.099 385.648 220.339 386.8C218.611 387.92 216.659 388.48 214.483 388.48C213.203 388.48 212.003 388.272 210.883 387.856C209.763 387.44 208.771 386.912 207.907 386.272C207.075 385.632 206.419 384.992 205.939 384.352C205.491 383.68 205.267 383.12 205.267 382.672L206.755 382.048V394.672C206.755 395.504 206.483 396.192 205.939 396.736C205.395 397.312 204.707 397.6 203.875 397.6C203.043 397.6 202.355 397.328 201.811 396.784C201.267 396.24 200.995 395.536 200.995 394.672V365.248C200.995 364.416 201.267 363.728 201.811 363.184C202.355 362.608 203.043 362.32 203.875 362.32C204.707 362.32 205.395 362.608 205.939 363.184C206.483 363.728 206.755 364.416 206.755 365.248V367.6L205.939 367.168C205.939 366.752 206.163 366.256 206.611 365.68C207.059 365.072 207.667 364.48 208.435 363.904C209.203 363.296 210.083 362.8 211.075 362.416C212.099 362.032 213.171 361.84 214.291 361.84ZM213.571 367.12C212.163 367.12 210.931 367.472 209.875 368.176C208.819 368.88 207.987 369.84 207.379 371.056C206.803 372.24 206.515 373.6 206.515 375.136C206.515 376.64 206.803 378.016 207.379 379.264C207.987 380.48 208.819 381.44 209.875 382.144C210.931 382.848 212.163 383.2 213.571 383.2C214.979 383.2 216.195 382.848 217.219 382.144C218.275 381.44 219.091 380.48 219.667 379.264C220.275 378.016 220.579 376.64 220.579 375.136C220.579 373.6 220.275 372.24 219.667 371.056C219.091 369.84 218.275 368.88 217.219 368.176C216.195 367.472 214.979 367.12 213.571 367.12ZM265.613 361.84C266.445 361.84 267.133 362.112 267.677 362.656C268.221 363.2 268.493 363.904 268.493 364.768V385.072C268.493 385.904 268.221 386.608 267.677 387.184C267.133 387.728 266.445 388 265.613 388C264.781 388 264.093 387.728 263.549 387.184C263.005 386.608 262.733 385.904 262.733 385.072V382.72L263.789 383.152C263.789 383.568 263.565 384.08 263.117 384.688C262.669 385.264 262.061 385.84 261.293 386.416C260.525 386.992 259.613 387.488 258.557 387.904C257.533 388.288 256.413 388.48 255.197 388.48C252.989 388.48 250.989 387.92 249.197 386.8C247.405 385.648 245.981 384.08 244.925 382.096C243.901 380.08 243.389 377.776 243.389 375.184C243.389 372.56 243.901 370.256 244.925 368.272C245.981 366.256 247.389 364.688 249.149 363.568C250.909 362.416 252.861 361.84 255.005 361.84C256.381 361.84 257.645 362.048 258.797 362.464C259.949 362.88 260.941 363.408 261.773 364.048C262.637 364.688 263.293 365.344 263.741 366.016C264.221 366.656 264.461 367.2 264.461 367.648L262.733 368.272V364.768C262.733 363.936 263.005 363.248 263.549 362.704C264.093 362.128 264.781 361.84 265.613 361.84ZM255.917 383.2C257.325 383.2 258.557 382.848 259.613 382.144C260.669 381.44 261.485 380.48 262.061 379.264C262.669 378.048 262.973 376.688 262.973 375.184C262.973 373.648 262.669 372.272 262.061 371.056C261.485 369.84 260.669 368.88 259.613 368.176C258.557 367.472 257.325 367.12 255.917 367.12C254.541 367.12 253.325 367.472 252.269 368.176C251.213 368.88 250.381 369.84 249.773 371.056C249.197 372.272 248.909 373.648 248.909 375.184C248.909 376.688 249.197 378.048 249.773 379.264C250.381 380.48 251.213 381.44 252.269 382.144C253.325 382.848 254.541 383.2 255.917 383.2ZM288.457 361.84C290.825 361.84 292.617 362.336 293.833 363.328C295.081 364.32 295.929 365.648 296.377 367.312C296.857 368.944 297.097 370.768 297.097 372.784V385.072C297.097 385.904 296.825 386.608 296.281 387.184C295.737 387.728 295.049 388 294.217 388C293.385 388 292.697 387.728 292.153 387.184C291.609 386.608 291.337 385.904 291.337 385.072V372.784C291.337 371.728 291.193 370.784 290.905 369.952C290.649 369.088 290.169 368.4 289.465 367.888C288.761 367.376 287.753 367.12 286.441 367.12C285.161 367.12 284.073 367.376 283.177 367.888C282.313 368.4 281.641 369.088 281.161 369.952C280.713 370.784 280.489 371.728 280.489 372.784V385.072C280.489 385.904 280.217 386.608 279.673 387.184C279.129 387.728 278.441 388 277.609 388C276.777 388 276.089 387.728 275.545 387.184C275.001 386.608 274.729 385.904 274.729 385.072V365.248C274.729 364.416 275.001 363.728 275.545 363.184C276.089 362.608 276.777 362.32 277.609 362.32C278.441 362.32 279.129 362.608 279.673 363.184C280.217 363.728 280.489 364.416 280.489 365.248V367.312L279.769 367.168C280.057 366.624 280.473 366.048 281.017 365.44C281.561 364.8 282.201 364.208 282.937 363.664C283.673 363.12 284.505 362.688 285.433 362.368C286.361 362.016 287.369 361.84 288.457 361.84ZM324.347 352.48C325.179 352.48 325.867 352.752 326.411 353.296C326.955 353.84 327.227 354.544 327.227 355.408V385.072C327.227 385.904 326.955 386.608 326.411 387.184C325.867 387.728 325.179 388 324.347 388C323.515 388 322.827 387.728 322.283 387.184C321.739 386.608 321.467 385.904 321.467 385.072V382.72L322.523 383.152C322.523 383.568 322.299 384.08 321.851 384.688C321.403 385.264 320.795 385.84 320.027 386.416C319.259 386.992 318.347 387.488 317.291 387.904C316.267 388.288 315.147 388.48 313.931 388.48C311.723 388.48 309.723 387.92 307.931 386.8C306.139 385.648 304.715 384.08 303.659 382.096C302.635 380.08 302.123 377.776 302.123 375.184C302.123 372.56 302.635 370.256 303.659 368.272C304.715 366.256 306.123 364.688 307.883 363.568C309.643 362.416 311.595 361.84 313.739 361.84C315.115 361.84 316.379 362.048 317.531 362.464C318.683 362.88 319.675 363.408 320.507 364.048C321.371 364.688 322.027 365.344 322.475 366.016C322.955 366.656 323.195 367.2 323.195 367.648L321.467 368.272V355.408C321.467 354.576 321.739 353.888 322.283 353.344C322.827 352.768 323.515 352.48 324.347 352.48ZM314.651 383.2C316.059 383.2 317.291 382.848 318.347 382.144C319.403 381.44 320.219 380.48 320.795 379.264C321.403 378.048 321.707 376.688 321.707 375.184C321.707 373.648 321.403 372.272 320.795 371.056C320.219 369.84 319.403 368.88 318.347 368.176C317.291 367.472 316.059 367.12 314.651 367.12C313.275 367.12 312.059 367.472 311.003 368.176C309.947 368.88 309.115 369.84 308.507 371.056C307.931 372.272 307.643 373.648 307.643 375.184C307.643 376.688 307.931 378.048 308.507 379.264C309.115 380.48 309.947 381.44 311.003 382.144C312.059 382.848 313.275 383.2 314.651 383.2ZM362.421 354.4C365.493 354.4 367.781 355.12 369.285 356.56C370.789 358 371.541 360.128 371.541 362.944C371.541 364.448 371.173 365.776 370.437 366.928C369.701 368.048 368.613 368.928 367.173 369.568C365.733 370.176 363.957 370.48 361.845 370.48L362.037 368.32C363.029 368.32 364.165 368.464 365.445 368.752C366.725 369.008 367.957 369.488 369.141 370.192C370.357 370.864 371.349 371.824 372.117 373.072C372.917 374.288 373.317 375.856 373.317 377.776C373.317 379.888 372.965 381.616 372.261 382.96C371.589 384.304 370.693 385.344 369.573 386.08C368.453 386.816 367.253 387.328 365.973 387.616C364.693 387.872 363.461 388 362.277 388H350.325C349.493 388 348.789 387.728 348.213 387.184C347.669 386.608 347.397 385.904 347.397 385.072V357.328C347.397 356.496 347.669 355.808 348.213 355.264C348.789 354.688 349.493 354.4 350.325 354.4H362.421ZM361.557 360.064H353.013L353.637 359.296V367.984L353.061 367.552H361.701C362.629 367.552 363.461 367.248 364.197 366.64C364.933 366.032 365.301 365.152 365.301 364C365.301 362.624 364.949 361.632 364.245 361.024C363.573 360.384 362.677 360.064 361.557 360.064ZM361.941 373.216H353.205L353.637 372.832V382.96L353.157 382.48H362.277C363.749 382.48 364.917 382.096 365.781 381.328C366.645 380.528 367.077 379.344 367.077 377.776C367.077 376.336 366.789 375.296 366.213 374.656C365.637 374.016 364.949 373.616 364.149 373.456C363.349 373.296 362.613 373.216 361.941 373.216ZM390.419 388.48C387.699 388.48 385.331 387.92 383.315 386.8C381.331 385.648 379.795 384.096 378.707 382.144C377.651 380.192 377.123 377.984 377.123 375.52C377.123 372.64 377.699 370.192 378.851 368.176C380.035 366.128 381.571 364.56 383.459 363.472C385.347 362.384 387.347 361.84 389.459 361.84C391.091 361.84 392.627 362.176 394.067 362.848C395.539 363.52 396.835 364.448 397.955 365.632C399.075 366.784 399.955 368.128 400.595 369.664C401.267 371.2 401.603 372.832 401.603 374.56C401.571 375.328 401.267 375.952 400.691 376.432C400.115 376.912 399.443 377.152 398.675 377.152H380.339L378.899 372.352H396.515L395.459 373.312V372.016C395.395 371.088 395.059 370.256 394.451 369.52C393.875 368.784 393.139 368.208 392.243 367.792C391.379 367.344 390.451 367.12 389.459 367.12C388.499 367.12 387.603 367.248 386.771 367.504C385.939 367.76 385.219 368.192 384.611 368.8C384.003 369.408 383.523 370.224 383.171 371.248C382.819 372.272 382.643 373.568 382.643 375.136C382.643 376.864 382.995 378.336 383.699 379.552C384.435 380.736 385.363 381.648 386.483 382.288C387.635 382.896 388.851 383.2 390.131 383.2C391.315 383.2 392.259 383.104 392.963 382.912C393.667 382.72 394.227 382.496 394.643 382.24C395.091 381.952 395.491 381.712 395.843 381.52C396.419 381.232 396.963 381.088 397.475 381.088C398.179 381.088 398.755 381.328 399.203 381.808C399.683 382.288 399.923 382.848 399.923 383.488C399.923 384.352 399.475 385.136 398.579 385.84C397.747 386.544 396.579 387.168 395.075 387.712C393.571 388.224 392.019 388.48 390.419 388.48ZM427.847 361.84C428.679 361.84 429.367 362.112 429.911 362.656C430.455 363.2 430.727 363.904 430.727 364.768V385.072C430.727 385.904 430.455 386.608 429.911 387.184C429.367 387.728 428.679 388 427.847 388C427.015 388 426.327 387.728 425.783 387.184C425.239 386.608 424.967 385.904 424.967 385.072V382.72L426.023 383.152C426.023 383.568 425.799 384.08 425.351 384.688C424.903 385.264 424.295 385.84 423.527 386.416C422.759 386.992 421.847 387.488 420.791 387.904C419.767 388.288 418.647 388.48 417.431 388.48C415.223 388.48 413.223 387.92 411.431 386.8C409.639 385.648 408.215 384.08 407.159 382.096C406.135 380.08 405.623 377.776 405.623 375.184C405.623 372.56 406.135 370.256 407.159 368.272C408.215 366.256 409.623 364.688 411.383 363.568C413.143 362.416 415.095 361.84 417.239 361.84C418.615 361.84 419.879 362.048 421.031 362.464C422.183 362.88 423.175 363.408 424.007 364.048C424.871 364.688 425.527 365.344 425.975 366.016C426.455 366.656 426.695 367.2 426.695 367.648L424.967 368.272V364.768C424.967 363.936 425.239 363.248 425.783 362.704C426.327 362.128 427.015 361.84 427.847 361.84ZM418.151 383.2C419.559 383.2 420.791 382.848 421.847 382.144C422.903 381.44 423.719 380.48 424.295 379.264C424.903 378.048 425.207 376.688 425.207 375.184C425.207 373.648 424.903 372.272 424.295 371.056C423.719 369.84 422.903 368.88 421.847 368.176C420.791 367.472 419.559 367.12 418.151 367.12C416.775 367.12 415.559 367.472 414.503 368.176C413.447 368.88 412.615 369.84 412.007 371.056C411.431 372.272 411.143 373.648 411.143 375.184C411.143 376.688 411.431 378.048 412.007 379.264C412.615 380.48 413.447 381.44 414.503 382.144C415.559 382.848 416.775 383.2 418.151 383.2ZM455.551 362.32C456.383 362.32 457.071 362.608 457.615 363.184C458.159 363.728 458.431 364.416 458.431 365.248V377.44C458.431 380.832 457.487 383.52 455.599 385.504C453.711 387.488 450.991 388.48 447.439 388.48C443.887 388.48 441.167 387.488 439.279 385.504C437.423 383.52 436.495 380.832 436.495 377.44V365.248C436.495 364.416 436.767 363.728 437.311 363.184C437.855 362.608 438.543 362.32 439.375 362.32C440.207 362.32 440.895 362.608 441.439 363.184C441.983 363.728 442.255 364.416 442.255 365.248V377.44C442.255 379.392 442.687 380.848 443.551 381.808C444.415 382.736 445.711 383.2 447.439 383.2C449.199 383.2 450.511 382.736 451.375 381.808C452.239 380.848 452.671 379.392 452.671 377.44V365.248C452.671 364.416 452.943 363.728 453.487 363.184C454.031 362.608 454.719 362.32 455.551 362.32ZM464.955 362.8H476.331C477.099 362.8 477.739 363.056 478.251 363.568C478.763 364.08 479.019 364.72 479.019 365.488C479.019 366.224 478.763 366.848 478.251 367.36C477.739 367.84 477.099 368.08 476.331 368.08H464.955C464.187 368.08 463.547 367.824 463.035 367.312C462.523 366.8 462.267 366.16 462.267 365.392C462.267 364.656 462.523 364.048 463.035 363.568C463.547 363.056 464.187 362.8 464.955 362.8ZM470.091 356.8C470.923 356.8 471.595 357.088 472.107 357.664C472.651 358.208 472.923 358.896 472.923 359.728V381.088C472.923 381.536 473.003 381.904 473.163 382.192C473.355 382.48 473.595 382.688 473.883 382.816C474.203 382.944 474.539 383.008 474.891 383.008C475.275 383.008 475.627 382.944 475.947 382.816C476.267 382.656 476.635 382.576 477.051 382.576C477.499 382.576 477.899 382.784 478.251 383.2C478.635 383.616 478.827 384.192 478.827 384.928C478.827 385.824 478.331 386.56 477.339 387.136C476.379 387.712 475.339 388 474.219 388C473.547 388 472.795 387.952 471.963 387.856C471.163 387.728 470.395 387.456 469.659 387.04C468.955 386.592 468.363 385.92 467.883 385.024C467.403 384.128 467.163 382.896 467.163 381.328V359.728C467.163 358.896 467.435 358.208 467.979 357.664C468.555 357.088 469.259 356.8 470.091 356.8ZM503.364 362.32C504.196 362.32 504.884 362.608 505.427 363.184C505.972 363.728 506.244 364.416 506.244 365.248V385.648C506.244 388.592 505.684 390.928 504.564 392.656C503.476 394.416 502.004 395.68 500.148 396.448C498.292 397.216 496.212 397.6 493.908 397.6C492.884 397.6 491.796 397.52 490.644 397.36C489.492 397.2 488.548 396.96 487.812 396.64C486.852 396.224 486.18 395.696 485.796 395.056C485.444 394.448 485.38 393.792 485.604 393.088C485.892 392.16 486.356 391.52 486.996 391.168C487.636 390.848 488.308 390.816 489.012 391.072C489.524 391.232 490.196 391.472 491.028 391.792C491.86 392.144 492.82 392.32 493.908 392.32C495.38 392.32 496.596 392.112 497.556 391.696C498.548 391.312 499.284 390.64 499.764 389.68C500.276 388.752 500.532 387.472 500.532 385.84V382.624L501.54 383.776C500.996 384.832 500.308 385.712 499.476 386.416C498.676 387.088 497.716 387.6 496.596 387.952C495.476 388.304 494.196 388.48 492.756 388.48C491.06 388.48 489.572 388.096 488.292 387.328C487.044 386.528 486.068 385.44 485.364 384.064C484.66 382.656 484.308 381.056 484.308 379.264V365.248C484.308 364.416 484.58 363.728 485.124 363.184C485.668 362.608 486.356 362.32 487.188 362.32C488.02 362.32 488.708 362.608 489.252 363.184C489.796 363.728 490.068 364.416 490.068 365.248V377.536C490.068 379.616 490.516 381.088 491.412 381.952C492.34 382.784 493.62 383.2 495.252 383.2C496.372 383.2 497.316 382.992 498.084 382.576C498.852 382.128 499.444 381.488 499.86 380.656C500.276 379.792 500.484 378.752 500.484 377.536V365.248C500.484 364.416 500.756 363.728 501.3 363.184C501.844 362.608 502.532 362.32 503.364 362.32ZM537.789 388C536.893 388 536.157 387.728 535.581 387.184C535.005 386.608 534.717 385.904 534.717 385.072V357.232H540.957V385.072C540.957 385.904 540.653 386.608 540.045 387.184C539.469 387.728 538.717 388 537.789 388ZM527.181 359.92C526.349 359.92 525.645 359.664 525.069 359.152C524.525 358.64 524.253 357.968 524.253 357.136C524.253 356.304 524.525 355.648 525.069 355.168C525.645 354.656 526.349 354.4 527.181 354.4H548.493C549.325 354.4 550.013 354.656 550.557 355.168C551.133 355.68 551.421 356.352 551.421 357.184C551.421 358.016 551.133 358.688 550.557 359.2C550.013 359.68 549.325 359.92 548.493 359.92H527.181ZM569.467 361.84C571.771 361.84 573.515 362.336 574.699 363.328C575.915 364.32 576.747 365.648 577.195 367.312C577.643 368.944 577.867 370.768 577.867 372.784V385.072C577.867 385.904 577.595 386.608 577.051 387.184C576.507 387.728 575.819 388 574.987 388C574.155 388 573.467 387.728 572.923 387.184C572.379 386.608 572.107 385.904 572.107 385.072V372.784C572.107 371.728 571.979 370.784 571.723 369.952C571.467 369.088 571.003 368.4 570.331 367.888C569.659 367.376 568.699 367.12 567.451 367.12C566.235 367.12 565.195 367.376 564.331 367.888C563.467 368.4 562.811 369.088 562.363 369.952C561.947 370.784 561.739 371.728 561.739 372.784V385.072C561.739 385.904 561.467 386.608 560.923 387.184C560.379 387.728 559.691 388 558.859 388C558.027 388 557.339 387.728 556.795 387.184C556.251 386.608 555.979 385.904 555.979 385.072V355.408C555.979 354.576 556.251 353.888 556.795 353.344C557.339 352.768 558.027 352.48 558.859 352.48C559.691 352.48 560.379 352.768 560.923 353.344C561.467 353.888 561.739 354.576 561.739 355.408V367.312L561.019 367.168C561.307 366.624 561.707 366.048 562.219 365.44C562.731 364.8 563.355 364.208 564.091 363.664C564.827 363.12 565.643 362.688 566.539 362.368C567.435 362.016 568.411 361.84 569.467 361.84ZM596.2 388.48C593.48 388.48 591.112 387.92 589.096 386.8C587.112 385.648 585.576 384.096 584.488 382.144C583.432 380.192 582.904 377.984 582.904 375.52C582.904 372.64 583.48 370.192 584.632 368.176C585.816 366.128 587.352 364.56 589.24 363.472C591.128 362.384 593.128 361.84 595.24 361.84C596.872 361.84 598.408 362.176 599.848 362.848C601.32 363.52 602.616 364.448 603.736 365.632C604.856 366.784 605.736 368.128 606.376 369.664C607.048 371.2 607.384 372.832 607.384 374.56C607.352 375.328 607.048 375.952 606.472 376.432C605.896 376.912 605.224 377.152 604.456 377.152H586.12L584.68 372.352H602.296L601.24 373.312V372.016C601.176 371.088 600.84 370.256 600.232 369.52C599.656 368.784 598.92 368.208 598.024 367.792C597.16 367.344 596.232 367.12 595.24 367.12C594.28 367.12 593.384 367.248 592.552 367.504C591.72 367.76 591 368.192 590.392 368.8C589.784 369.408 589.304 370.224 588.952 371.248C588.6 372.272 588.424 373.568 588.424 375.136C588.424 376.864 588.776 378.336 589.48 379.552C590.216 380.736 591.144 381.648 592.264 382.288C593.416 382.896 594.632 383.2 595.912 383.2C597.096 383.2 598.04 383.104 598.744 382.912C599.448 382.72 600.008 382.496 600.424 382.24C600.872 381.952 601.272 381.712 601.624 381.52C602.2 381.232 602.744 381.088 603.256 381.088C603.96 381.088 604.536 381.328 604.984 381.808C605.464 382.288 605.704 382.848 605.704 383.488C605.704 384.352 605.256 385.136 604.36 385.84C603.528 386.544 602.36 387.168 600.856 387.712C599.352 388.224 597.8 388.48 596.2 388.48ZM615.297 388C614.465 388 613.777 387.728 613.233 387.184C612.689 386.608 612.417 385.904 612.417 385.072V365.248C612.417 364.416 612.689 363.728 613.233 363.184C613.777 362.608 614.465 362.32 615.297 362.32C616.129 362.32 616.817 362.608 617.361 363.184C617.905 363.728 618.177 364.416 618.177 365.248V369.76L617.841 366.544C618.193 365.776 618.641 365.104 619.185 364.528C619.761 363.92 620.401 363.424 621.105 363.04C621.809 362.624 622.561 362.32 623.361 362.128C624.161 361.936 624.961 361.84 625.761 361.84C626.721 361.84 627.521 362.112 628.161 362.656C628.833 363.2 629.169 363.84 629.169 364.576C629.169 365.632 628.897 366.4 628.353 366.88C627.809 367.328 627.217 367.552 626.577 367.552C625.969 367.552 625.409 367.44 624.897 367.216C624.417 366.992 623.857 366.88 623.217 366.88C622.641 366.88 622.049 367.024 621.441 367.312C620.865 367.568 620.321 367.984 619.809 368.56C619.329 369.136 618.929 369.856 618.609 370.72C618.321 371.552 618.177 372.544 618.177 373.696V385.072C618.177 385.904 617.905 386.608 617.361 387.184C616.817 387.728 616.129 388 615.297 388ZM653.691 361.84C654.523 361.84 655.211 362.112 655.755 362.656C656.299 363.2 656.571 363.904 656.571 364.768V385.072C656.571 385.904 656.299 386.608 655.755 387.184C655.211 387.728 654.523 388 653.691 388C652.859 388 652.171 387.728 651.627 387.184C651.083 386.608 650.811 385.904 650.811 385.072V382.72L651.867 383.152C651.867 383.568 651.643 384.08 651.195 384.688C650.747 385.264 650.139 385.84 649.371 386.416C648.603 386.992 647.691 387.488 646.635 387.904C645.611 388.288 644.491 388.48 643.275 388.48C641.067 388.48 639.067 387.92 637.275 386.8C635.483 385.648 634.059 384.08 633.003 382.096C631.979 380.08 631.467 377.776 631.467 375.184C631.467 372.56 631.979 370.256 633.003 368.272C634.059 366.256 635.467 364.688 637.227 363.568C638.987 362.416 640.939 361.84 643.083 361.84C644.459 361.84 645.723 362.048 646.875 362.464C648.027 362.88 649.019 363.408 649.851 364.048C650.715 364.688 651.371 365.344 651.819 366.016C652.299 366.656 652.539 367.2 652.539 367.648L650.811 368.272V364.768C650.811 363.936 651.083 363.248 651.627 362.704C652.171 362.128 652.859 361.84 653.691 361.84ZM643.995 383.2C645.403 383.2 646.635 382.848 647.691 382.144C648.747 381.44 649.563 380.48 650.139 379.264C650.747 378.048 651.051 376.688 651.051 375.184C651.051 373.648 650.747 372.272 650.139 371.056C649.563 369.84 648.747 368.88 647.691 368.176C646.635 367.472 645.403 367.12 643.995 367.12C642.619 367.12 641.403 367.472 640.347 368.176C639.291 368.88 638.459 369.84 637.851 371.056C637.275 372.272 636.987 373.648 636.987 375.184C636.987 376.688 637.275 378.048 637.851 379.264C638.459 380.48 639.291 381.44 640.347 382.144C641.403 382.848 642.619 383.2 643.995 383.2ZM676.104 361.84C678.344 361.84 680.344 362.416 682.104 363.568C683.896 364.688 685.304 366.24 686.328 368.224C687.384 370.208 687.911 372.512 687.911 375.136C687.911 377.76 687.384 380.08 686.328 382.096C685.304 384.08 683.912 385.648 682.152 386.8C680.424 387.92 678.472 388.48 676.296 388.48C675.016 388.48 673.816 388.272 672.696 387.856C671.576 387.44 670.584 386.912 669.72 386.272C668.888 385.632 668.232 384.992 667.752 384.352C667.304 383.68 667.08 383.12 667.08 382.672L668.568 382.048V394.672C668.568 395.504 668.296 396.192 667.752 396.736C667.208 397.312 666.52 397.6 665.688 397.6C664.856 397.6 664.168 397.328 663.624 396.784C663.08 396.24 662.808 395.536 662.808 394.672V365.248C662.808 364.416 663.08 363.728 663.624 363.184C664.168 362.608 664.856 362.32 665.688 362.32C666.52 362.32 667.208 362.608 667.752 363.184C668.296 363.728 668.568 364.416 668.568 365.248V367.6L667.752 367.168C667.752 366.752 667.976 366.256 668.424 365.68C668.872 365.072 669.48 364.48 670.248 363.904C671.016 363.296 671.896 362.8 672.888 362.416C673.912 362.032 674.984 361.84 676.104 361.84ZM675.384 367.12C673.976 367.12 672.744 367.472 671.688 368.176C670.632 368.88 669.8 369.84 669.192 371.056C668.616 372.24 668.328 373.6 668.328 375.136C668.328 376.64 668.616 378.016 669.192 379.264C669.8 380.48 670.632 381.44 671.688 382.144C672.744 382.848 673.976 383.2 675.384 383.2C676.792 383.2 678.008 382.848 679.032 382.144C680.088 381.44 680.904 380.48 681.48 379.264C682.088 378.016 682.392 376.64 682.392 375.136C682.392 373.6 682.088 372.24 681.48 371.056C680.904 369.84 680.088 368.88 679.032 368.176C678.008 367.472 676.792 367.12 675.384 367.12ZM712.004 362.32C712.836 362.32 713.524 362.608 714.068 363.184C714.612 363.728 714.884 364.416 714.884 365.248V385.648C714.884 388.592 714.324 390.928 713.204 392.656C712.116 394.416 710.644 395.68 708.788 396.448C706.932 397.216 704.852 397.6 702.548 397.6C701.524 397.6 700.436 397.52 699.284 397.36C698.132 397.2 697.188 396.96 696.452 396.64C695.492 396.224 694.82 395.696 694.436 395.056C694.084 394.448 694.02 393.792 694.244 393.088C694.532 392.16 694.996 391.52 695.636 391.168C696.276 390.848 696.948 390.816 697.652 391.072C698.164 391.232 698.836 391.472 699.668 391.792C700.5 392.144 701.46 392.32 702.548 392.32C704.02 392.32 705.236 392.112 706.196 391.696C707.188 391.312 707.924 390.64 708.404 389.68C708.916 388.752 709.172 387.472 709.172 385.84V382.624L710.18 383.776C709.636 384.832 708.948 385.712 708.116 386.416C707.316 387.088 706.356 387.6 705.236 387.952C704.116 388.304 702.836 388.48 701.396 388.48C699.7 388.48 698.212 388.096 696.932 387.328C695.684 386.528 694.708 385.44 694.004 384.064C693.3 382.656 692.948 381.056 692.948 379.264V365.248C692.948 364.416 693.22 363.728 693.764 363.184C694.308 362.608 694.996 362.32 695.828 362.32C696.66 362.32 697.348 362.608 697.892 363.184C698.436 363.728 698.708 364.416 698.708 365.248V377.536C698.708 379.616 699.156 381.088 700.052 381.952C700.98 382.784 702.26 383.2 703.892 383.2C705.012 383.2 705.956 382.992 706.724 382.576C707.492 382.128 708.084 381.488 708.5 380.656C708.916 379.792 709.124 378.752 709.124 377.536V365.248C709.124 364.416 709.396 363.728 709.94 363.184C710.484 362.608 711.172 362.32 712.004 362.32Z" fill="white"/>
</svg>
